# xmcd CD database file
#
# Track frame offsets:
#	150
#	11148
#	24735
#	37677
#	49587
#	61771
#	76468
#	85027
#	99244
#	112815
#	125525
#	136850
#	147320
#	160933
#	173478
#	184985
#	195599
#	205692
#	215198
#	225566
#	241356
#	253995
#	264747
#	276093
#	289332
#
# Disc length: 4029 seconds
#
# Revision: 0
# Processed by: cddbd v1.5.2PL0 Copyright (c) Steve Scherf et al.
# Submitted via: jetAudio 7
#
DISCID=5f0fbb19
DTITLE=The Statler Brothers - The Definitive Collection - MCA Years Dis
DTITLE=c 1
DYEAR=1900
DGENRE=Country
TTITLE0=Bed Of Roses
TTITLE1=Pictures
TTITLE2=Do You Remember These
TTITLE3=The Class Of '57
TTITLE4=Monday Morning Secretary
TTITLE5=Carry Me Back
TTITLE6=Whatever Happened To Randolph Scott
TTITLE7=Thank You World
TTITLE8=Susan When She Tried
TTITLE9=I'll Go To My Grave Loving You
TTITLE10=Your Picture In The Paper
TTITLE11=Thank God I've Got You
TTITLE12=The Movies
TTITLE13=I Was There
TTITLE14=Silver Medals And Sweet Memories
TTITLE15=Some I Wrote
TTITLE16=Do You Know You Are My Sunshine
TTITLE17=Who Am I To Say
TTITLE18=The Official Historian On Shirley Jean Berrell
TTITLE19=How To Be A Country Star
TTITLE20=Here We Are Again
TTITLE21=Nothing As Original As You
TTITLE22=(I'll Even Love You) Better Than I Did Then
TTITLE23=Charlotte's Web
TTITLE24=Don't Forget Yourself
EXTD=
EXTT0=
EXTT1=
EXTT2=
EXTT3=
EXTT4=
EXTT5=
EXTT6=
EXTT7=
EXTT8=
EXTT9=
EXTT10=
EXTT11=
EXTT12=
EXTT13=
EXTT14=
EXTT15=
EXTT16=
EXTT17=
EXTT18=
EXTT19=
EXTT20=
EXTT21=
EXTT22=
EXTT23=
EXTT24=
PLAYORDER=
